# AST/ASF file generated using VICON BodyLanguage
# -----------------------------------------------
:version 1.10
:name VICON
:units
  mass 1.0
  length 0.45
  angle deg
:documentation
   .ast/.asf automatically generated from VICON data using
   VICON BodyBuilder and BodyLanguage model FoxedUp or BRILLIANT.MOD
:root
   order TX TY TZ RX RY RZ
   axis XYZ
   position 0 0 0  
   orientation 0 0 0 
:bonedata
  begin
     id 1 
     name lhipjoint
     direction 0.722297 -0.617336 0.311742 
     length 2.6635 
     axis 0 0 0  XYZ
  end
  begin
     id 2 
     name lfemur
     direction 0.34202 -0.939693 0  
     length 7.39349  
     axis 0 0 20  XYZ
    dof rx ry rz
    limits (-160.0 20.0)
           (-70.0 70.0)
           (-60.0 70.0)
  end
  begin
     id 3 
     name ltibia
     direction 0.34202 -0.939693 0   
     length 7.36294   
     axis 0 0 20   XYZ
    dof rx
    limits (-10.0 170.0)
  end
  begin
     id 4 
     name lfoot
     direction 0.104879 -0.288152 0.951824   
     length 2.16981   
     axis -90 7.62852e-016 20   XYZ
    dof rx rz
    limits (-45.0 90.0)
           (-70.0 20.0)
  end
  begin
     id 5 
     name ltoes
     direction 1.53586e-011 -4.21895e-011 1   
     length 1.08218   
     axis -90 7.62852e-016 20   XYZ
    dof rx
    limits (-90.0 20.0)
  end
  begin
     id 6 
     name rhipjoint
     direction -0.75102 -0.589393 0.297631   
     length 2.78977  
     axis 0 0 0  XYZ 
  end
  begin
     id 7 
     name rfemur
     direction -0.34202 -0.939693 0   
     length 7.46076   
     axis 0 0 -20   XYZ
    dof rx ry rz
    limits (-160.0 20.0)
           (-70.0 70.0)
           (-70.0 60.0)
  end
  begin
     id 8 
     name rtibia
     direction -0.34202 -0.939693 0   
     length 7.31726   
     axis 0 0 -20   XYZ
    dof rx
    limits (-10.0 170.0)
 end
 begin
     id 9 
     name rfoot
     direction -0.107991 -0.296704 0.948844   
     length 2.09388  
     axis -90 -7.62852e-016 -20   XYZ
    dof rx rz
    limits (-45.0 90.0)
           (-20.0 70.0)
  end
  begin
     id 10 
     name rtoes
     direction -1.53559e-011 -4.21911e-011 1   
     length 1.04433   
     axis -90 -7.62852e-016 -20   XYZ
    dof rx
    limits (-90.0 20.0)
  end
  begin
     id 11 
     name lowerback
     direction 0.0165164 0.98272 0.184358   
     length 1.71896   
     axis 0 0 0   XYZ
    dof rx ry rz
    limits (-20.0 45.0)
           (-30.0 30.0)
           (-30.0 30.0)
  end
  begin
     id 12 
     name upperback
     direction -0.00887249 0.992297 0.123566   
     length 1.71504   
     axis 0 0 0   XYZ
    dof rx ry rz
    limits (-20.0 45.0)
           (-30.0 30.0)
           (-30.0 30.0)
  end
  begin
     id 13 
     name thorax
     direction -0.0157026 0.998908 0.0440032   
     length 1.77022   
     axis 0 0 0   XYZ
    dof rx ry rz
    limits (-20.0 45.0)
           (-30.0 30.0)
           (-30.0 30.0)
  end
  begin
     id 14 
     name lowerneck
     direction -0.0238856 0.998137 0.0561411   
     length 1.89341   
     axis 0 0 0   XYZ
    dof rx ry rz
    limits (-20.0 45.0)
           (-30.0 30.0)
           (-30.0 30.0)
  end
  begin
     id 15 
     name upperneck
     direction 0.0276574 0.952253 -0.304056   
     length 1.86999   
     axis 0 0 0   XYZ
    dof rx ry rz
    limits (-20.0 45.0)
           (-30.0 30.0)
           (-30.0 30.0)
  end
  begin
     id 16
     name head
     direction 0.00800083 0.994258 -0.106712  
     length 1.91492  
     axis 0 0 0   XYZ
    dof rx ry rz
    limits (-20.0 45.0)
           (-30.0 30.0)
           (-30.0 30.0)
  end
  begin
     id 17 
     name lclavicle
     direction 0.97203 0.225407 0.06595  
     length 3.34889  
     axis 0 0 0   XYZ
    dof ry rz
    limits (-20.0 10.0)
           (0.0 20.0)
  end
  begin
     id 18 
     name lhumerus
     direction 1 -4.48973e-011 2.20267e-027   
     length 4.85645   
     axis 180 -30 -90   XYZ
    dof rx ry rz
    limits (-60.0 90.0)
           (-90.0 90.0)
           (-90.0 90.0)
  end
  begin
     id 19
     name lradius
     direction 1 -4.4897e-011 4.60472e-027   
     length 2.79874   
     axis 180 -30 -90   XYZ
    dof rx
    limits (-10.0 170.0)
  end
  begin
     id 20
     name lwrist
     direction 1 -4.48952e-011 1.14928e-026   
     length 1.39937   
     axis -6.29373e-015 90 90   XYZ
    dof ry
    limits (-180.0 0.0)
 end
  begin
     id 21 
     name lhand
     direction 1 -4.48967e-011 2.29886e-026   
     length 0.573398   
     axis -1.46689e-014 90 90   XYZ
    dof rx rz
    limits (-90.0 90.0)
           (-45.0 45.0)
  end
  begin
     id 22 
     name lfingers
     direction 1 -4.48955e-011 4.59726e-026   
     length 0.462289   
     axis -2.93383e-014 90 90   XYZ
    dof rx
    limits (0.0 90.0)
  end
  begin
     id 23
     name lthumb
     direction 0.707107 -6.34866e-011 0.707107   
     length 0.663757   
     axis -90 45 5.69224e-014   XYZ
    dof rx rz
    limits (-45.0 45.0)
           (-45.0 45.0)
  end
  begin
     id 24 
     name rclavicle
     direction -0.981571 0.157346 0.108443   
     length 3.35257  
     axis 0 0 0   XYZ 
    dof ry rz
    limits (-10.0 20.0)
           (-20.0 0.0)
  end
  begin
     id 25 
     name rhumerus
     direction -1 -4.48967e-011 8.58308e-029  
     length 4.67018   
     axis 180 30 90   XYZ
    dof rx ry rz
    limits (-90.0 60.0)
           (-90.0 90.0)
           (-90.0 90.0)
  end
  begin
     id 26 
     name rradius
     direction -1 -4.48958e-011 4.52548e-027   
     length 2.65534   
     axis 180 30 90   XYZ
    dof rx
    limits (-10.0 170.0)
  end
  begin
     id 27 
     name rwrist
     direction -1 -4.48977e-011 1.14952e-026   
     length 1.32767   
     axis -6.29373e-015 -90 -90   XYZ
    dof ry
    limits (-180.0 0.0)
  end
  begin
     id 28
     name rhand
     direction -1 -4.48924e-011 2.29804e-026   
     length 0.594069   
     axis -1.46689e-014 -90 -90   XYZ
    dof rx rz
    limits (-90.0 90.0)
           (-45.0 45.0)
  end
  begin
     id 29
     name rfingers
     direction -1 -4.48998e-011 4.59888e-026   
     length 0.478954   
     axis -2.93383e-014 -90 -90   XYZ
    dof rx
    limits (0.0 90.0)
  end
  begin
     id 30
     name rthumb
     direction -0.707107 -6.34933e-011 0.707107   
     length 0.687685   
     axis -90 -45 -5.69224e-014   XYZ
    dof rx rz
    limits (-45.0 45.0)
           (-45.0 45.0)
  end
:hierarchy
  begin
    root lhipjoint rhipjoint lowerback
    lhipjoint lfemur
    lfemur ltibia
    ltibia lfoot
    lfoot ltoes
    rhipjoint rfemur
    rfemur rtibia
    rtibia rfoot
    rfoot rtoes
    lowerback upperback
    upperback thorax
    thorax lowerneck lclavicle rclavicle
    lowerneck upperneck
    upperneck head
    lclavicle lhumerus
    lhumerus lradius
    lradius lwrist
    lwrist lhand lthumb
    lhand lfingers
    rclavicle rhumerus
    rhumerus rradius
    rradius rwrist
    rwrist rhand rthumb
    rhand rfingers
  end

#!OML:ASF E:\pregnant2\Project 1\Capture day 1\Session 1\pregnant2.ASF
:FULLY-SPECIFIED
:DEGREES
120
root -4.3474 17.3897 19.9114 31.1983 0.754649 1.46195
lowerback -21.682 -0.385276 -2.15048
upperback -16.4232 -0.14612 -0.175271
thorax -5.98792 0.121298 0.994057
lowerneck -14.8237 -4.2432 -6.1443
upperneck 33.8174 -4.89895 1.17808
head 14.2603 -2.76912 0.735378
rclavicle 6.7711e-016 -6.55989e-015
rhumerus -45.1538 5.72696 -91.1664
rradius 27.948
rwrist 18.6273
rhand -10.5375 -15.253
rfingers 7.12502
rthumb 15.466 -44.6544
lclavicle 6.7711e-016 -6.55989e-015
lhumerus -47.1696 -10.4551 98.5035
lradius 26.5838
lwrist -10.0297
lhand -7.79893 25.8258
lfingers 7.12502
lthumb 18.1023 55.0035
rfemur -45.1981 15.3641 6.5318
rtibia 29.9678
rfoot -16.5678 -25.9486
rtoes 0.315926
lfemur -40.0014 -7.88382 -15.2466
ltibia 23.5264
lfoot -11.9854 20.8092
ltoes -2.8921
121
root -4.34751 17.3896 19.9102 31.1946 0.750186 1.46468
lowerback -21.6706 -0.384202 -2.12216
upperback -16.4232 -0.149091 -0.146408
thorax -5.99311 0.11888 1.0089
lowerneck -14.9591 -4.13213 -5.98866
upperneck 33.828 -4.56616 0.617063
head 14.2595 -2.68154 0.534434
rclavicle 1.2424e-016 -3.23025e-015
rhumerus -45.1218 5.7312 -91.1302
rradius 27.9599
rwrist 18.5907
rhand -10.5733 -15.2365
rfingers 7.12502
rthumb 15.4315 -44.6405
lclavicle 1.2424e-016 -3.23025e-015
lhumerus -47.1894 -10.4759 98.5546
lradius 26.5898
lwrist -10.013
lhand -7.81367 25.8174
lfingers 7.12502
lthumb 18.0881 54.9963
rfemur -45.2017 15.3651 6.52745
rtibia 29.9732
rfoot -16.5657 -25.9475
rtoes 0.314485
lfemur -39.9969 -7.87593 -15.2543
ltibia 23.5201
lfoot -11.98 20.7994
ltoes -2.8882
122
root -4.34769 17.3896 19.909 31.1902 0.743458 1.47248
lowerback -21.657 -0.382867 -2.09498
upperback -16.4243 -0.151643 -0.119002
thorax -6.00085 0.116708 1.02288
lowerneck -15.0767 -4.00343 -5.81828
upperneck 33.7942 -4.19917 0.0194225
head 14.2355 -2.5825 0.322766
rclavicle 4.07509e-015 -9.49197e-015
rhumerus -45.0956 5.73202 -91.0954
rradius 27.973
rwrist 18.5551
rhand -10.6339 -15.1945
rfingers 7.12502
rthumb 15.3731 -44.603
lclavicle 4.07509e-015 -9.49197e-015
lhumerus -47.215 -10.4976 98.6047
lradius 26.5994
lwrist -10.001
lhand -7.82922 25.8032
lfingers 7.12502
lthumb 18.0732 54.9835
rfemur -45.2062 15.3654 6.51732
rtibia 29.9823
rfoot -16.5665 -25.9462
rtoes 0.313433
lfemur -39.9889 -7.86511 -15.2702
ltibia 23.5086
lfoot -11.9703 20.7834
ltoes -2.89078
123
root -4.34794 17.3895 19.908 31.1864 0.735441 1.48398
lowerback -21.6451 -0.379661 -2.06579
upperback -16.4267 -0.152098 -0.0959839
thorax -6.00915 0.11516 1.03132
lowerneck -15.1739 -3.85953 -5.63582
upperneck 33.7179 -3.80615 -0.603412
head 14.1902 -2.47403 0.104428
rclavicle -1.18028e-015 -1.2921e-015
rhumerus -45.0712 5.71798 -91.0593
rradius 27.9816
rwrist 18.5363
rhand -10.6761 -15.1533
rfingers 7.12502
rthumb 15.3325 -44.5649
lclavicle -1.18028e-015 -1.2921e-015
lhumerus -47.2454 -10.5232 98.6516
lradius 26.6087
lwrist -9.99665
lhand -7.83757 25.7866
lfingers 7.12502
lthumb 18.0651 54.9677
rfemur -45.2131 15.3677 6.50137
rtibia 29.9948
rfoot -16.5699 -25.9478
rtoes 0.310828
lfemur -39.9789 -7.85252 -15.2914
ltibia 23.4918
lfoot -11.9583 20.7636
ltoes -2.89562
124
root -4.3482 17.3894 19.9069 31.1838 0.726461 1.49984
lowerback -21.634 -0.375027 -2.03574
upperback -16.4294 -0.150867 -0.0773358
thorax -6.01757 0.114123 1.03482
lowerneck -15.2386 -3.70469 -5.42562
upperneck 33.5838 -3.39431 -1.26881
head 14.1142 -2.35919 -0.130685
rclavicle -2.93207e-015 -3.97569e-016
rhumerus -45.0467 5.69097 -91.0219
rradius 27.9847
rwrist 18.5335
rhand -10.7043 -15.1161
rfingers 7.12502
rthumb 15.3054 -44.5298
lclavicle -2.93207e-015 -3.97569e-016
lhumerus -47.2782 -10.5518 98.6951
lradius 26.6199
lwrist -9.99607
lhand -7.83477 25.7749
lfingers 7.12502
lthumb 18.0678 54.9558
rfemur -45.2228 15.3722 6.4779
rtibia 30.0097
rfoot -16.5774 -25.9526
rtoes 0.315327
lfemur -39.9686 -7.84234 -15.3163
ltibia 23.4709
lfoot -11.946 20.7444
ltoes -2.89267
